<svg xmlns="http://www.w3.org/2000/svg" viewBox="0 0 1250 480">
    <defs>
        <style>.cls-1{fill:#1d1d1b;}.cls-2{fill:#4fb051;}</style>
    </defs>
    <title>IO Radio</title>
    <g id="layer1">
        <path class="cls-1"
              d="M1150.18,160.21q-32.29-31.51-81.82-31.51-49.22,0-81.67,31.66a106,106,0,0,0-21.35,29.18V131.84H912v56a104.81,104.81,0,0,0-19.79-25.23q-32.45-30.72-80.73-30.72h-85.9V273.7L672.17,131.84h-64L544.3,301.44,520.9,261.94A73.71,73.71,0,0,0,551,236.86a62.93,62.93,0,0,0,11.29-36.68q0-29.46-24-48.91t-60.35-19.44H389.54V348.16h53.29V270.72h26l41.38,77.44h71.33L595.36,309h86.53l13.79,39.19h113q50.15,0,83.08-30.88A104.5,104.5,0,0,0,912,291.48v56.68h53.29V290.87a105.54,105.54,0,0,0,21.2,28.91q32.29,31.51,81.51,31.51,49.53,0,82-31.51T1182.47,240Q1182.47,191.72,1150.18,160.21ZM499.11,219.15q-7.69,6.11-21.16,6.11H442.83v-46.4h35.11q13.48,0,21.16,6.11t7.68,17.09Q506.79,213,499.11,219.15Zm111.61,45.93,27.9-79,27.9,79ZM853.84,285q-15.36,16.15-42.64,16.15H778.92V178.87h32.29q27.28,0,42.64,16.15t15.36,45Q869.2,268.85,853.84,285Zm257.77,1.1q-15.36,16.62-43,16.62t-43.26-16.62q-15.68-16.61-15.67-46.08t15.67-46.08q15.67-16.61,43.26-16.62t43,16.62Q1127,210.53,1127,240T1111.62,286.08Z"/>
        <path class="cls-2"
              d="M240.47,31.24h0A1.24,1.24,0,0,0,241.71,30h0a1.24,1.24,0,0,0-1.24-1.23h0a1.24,1.24,0,0,0,0,2.47Z"/>
        <rect class="cls-2" x="209.35" y="28.88" width="2.24" height="2.24" rx="1.12" ry="1.12"/>
        <rect class="cls-2" x="269.35" y="28.88" width="2.24" height="2.24" rx="1.12" ry="1.12"/>
        <path class="cls-2" d="M180.47,30.94a.94.94,0,0,0,.94-.94h0a.94.94,0,1,0-.94.94Z"/>
        <path class="cls-2" d="M300.47,30.88h0a.88.88,0,0,0,.88-.88h0a.88.88,0,0,0-.88-.88h0a.88.88,0,0,0,0,1.77Z"/>
        <path class="cls-2" d="M150.47,30.65a.65.65,0,0,0,.65-.65h0a.65.65,0,1,0-.65.65Z"/>
        <path class="cls-2" d="M330.47,30.65a.65.65,0,0,0,.65-.65h0a.65.65,0,1,0-.65.65Z"/>
        <path class="cls-2" d="M120.47,30.47h0a.47.47,0,0,0,.47-.47h0a.47.47,0,0,0-.47-.47h0a.47.47,0,0,0,0,.94Z"/>
        <path class="cls-2" d="M360.47,30.47h0a.47.47,0,0,0,.47-.47h0a.47.47,0,0,0-.47-.47h0a.47.47,0,0,0,0,.94Z"/>
        <circle class="cls-2" cx="240.47" cy="60" r="3.82"/>
        <path class="cls-2"
              d="M210.47,63.53h0A3.53,3.53,0,0,0,214,60h0a3.53,3.53,0,0,0-3.53-3.53h0a3.53,3.53,0,0,0,0,7.06Z"/>
        <path class="cls-2"
              d="M270.47,63.47h0A3.47,3.47,0,0,0,273.94,60h0a3.47,3.47,0,0,0-3.47-3.47h0a3.47,3.47,0,0,0,0,6.94Z"/>
        <circle class="cls-2" cx="180.47" cy="60" r="2.71"/>
        <rect class="cls-2" x="297.88" y="57.41" width="5.18" height="5.18" rx="2.59" ry="2.59"/>
        <path class="cls-2" d="M150.47,61.76A1.76,1.76,0,0,0,152.24,60h0a1.76,1.76,0,1,0-1.77,1.77Z"/>
        <path class="cls-2"
              d="M330.47,61.65h0A1.65,1.65,0,0,0,332.12,60h0a1.65,1.65,0,0,0-1.65-1.65h0a1.65,1.65,0,0,0,0,3.29Z"/>
        <path class="cls-2" d="M120.47,60.94a.94.94,0,0,0,.94-.94h0a.94.94,0,1,0-.94.94Z"/>
        <path class="cls-2" d="M360.47,60.88h0a.88.88,0,0,0,.88-.88h0a.88.88,0,0,0-.88-.88h0a.88.88,0,0,0,0,1.77Z"/>
        <path class="cls-2" d="M90.47,60.53h0A.53.53,0,0,0,91,60h0a.53.53,0,0,0-.53-.53h0a.53.53,0,0,0,0,1.06Z"/>
        <path class="cls-2" d="M390.47,60.53h0A.53.53,0,0,0,391,60h0a.53.53,0,0,0-.53-.53h0a.53.53,0,0,0,0,1.06Z"/>
        <path class="cls-2" d="M240.47,98.53A8.53,8.53,0,0,0,249,90h0a8.53,8.53,0,1,0-8.53,8.53Z"/>
        <path class="cls-2" d="M210.47,98.12A8.12,8.12,0,0,0,218.59,90h0a8.12,8.12,0,1,0-8.12,8.12Z"/>
        <path class="cls-2" d="M270.47,98h0a8,8,0,0,0,8-8h0a8,8,0,0,0-8-8h0a8,8,0,0,0,0,16Z"/>
        <circle class="cls-2" cx="180.47" cy="90" r="6.76"/>
        <path class="cls-2"
              d="M300.47,96.53h0A6.53,6.53,0,0,0,307,90h0a6.53,6.53,0,0,0-6.53-6.53h0a6.53,6.53,0,0,0,0,13.06Z"/>
        <path class="cls-2" d="M150.47,94.71A4.71,4.71,0,0,0,155.18,90h0a4.71,4.71,0,1,0-4.71,4.71Z"/>
        <path class="cls-2"
              d="M330.47,94.41A4.41,4.41,0,0,0,334.88,90h0a4.41,4.41,0,0,0-4.41-4.41h0a4.41,4.41,0,0,0,0,8.82Z"/>
        <rect class="cls-2" x="117.88" y="87.41" width="5.18" height="5.18" rx="2.59" ry="2.59"/>
        <path class="cls-2"
              d="M360.47,92.41h0A2.41,2.41,0,0,0,362.88,90h0a2.41,2.41,0,0,0-2.41-2.41h0a2.41,2.41,0,0,0,0,4.82Z"/>
        <circle class="cls-2" cx="90.47" cy="90" r="1.18"/>
        <path class="cls-2"
              d="M390.47,91.12h0A1.12,1.12,0,0,0,391.59,90h0a1.12,1.12,0,1,0-2.24,0h0A1.12,1.12,0,0,0,390.47,91.12Z"/>
        <path class="cls-2" d="M60.47,90.59a.59.59,0,0,0,.59-.59h0a.59.59,0,1,0-.59.59Z"/>
        <path class="cls-2" d="M420.47,90.53h0A.53.53,0,0,0,421,90h0a.53.53,0,0,0-.53-.53h0a.53.53,0,0,0,0,1.06Z"/>
        <path class="cls-2" d="M240.47,107.29a12.71,12.71,0,0,0-10.22,5.18h20.44A12.71,12.71,0,0,0,240.47,107.29Z"/>
        <path class="cls-2"
              d="M210.47,132.35h0a12.35,12.35,0,0,0,10.94-6.64,5.06,5.06,0,0,0-.84-2.13,2.19,2.19,0,0,0-1-.93,28,28,0,0,0-3.23-1.19,4.44,4.44,0,0,1-3.4-4.58,3.66,3.66,0,0,1,1.61-3.23,8.2,8.2,0,0,1,4.75-1.19h1a12.35,12.35,0,0,0-9.79-4.83h0A12.35,12.35,0,0,0,198.12,120h0A12.35,12.35,0,0,0,210.47,132.35Z"/>
        <path class="cls-2"
              d="M270.47,132.29A12.29,12.29,0,0,0,282.76,120h0a12.29,12.29,0,0,0-12.29-12.29h0a12.29,12.29,0,0,0-9.7,4.77h.8a7.79,7.79,0,0,1,4.67,1.19,3.61,3.61,0,0,1,1.7,3.23,4.44,4.44,0,0,1-3.4,4.58q-2.8.93-3.31,1.19a2.39,2.39,0,0,0-.93.93,4.9,4.9,0,0,0-.8,2A12.29,12.29,0,0,0,270.47,132.29Z"/>
        <path class="cls-2" d="M180.47,131.12A11.12,11.12,0,0,0,191.59,120h0a11.12,11.12,0,1,0-11.12,11.12Z"/>
        <circle class="cls-2" cx="300.47" cy="120" r="10.88"/>
        <circle class="cls-2" cx="150.47" cy="120" r="8.71"/>
        <path class="cls-2"
              d="M330.47,128.35h0a8.35,8.35,0,0,0,8.35-8.35h0a8.35,8.35,0,0,0-8.35-8.35h0a8.35,8.35,0,0,0,0,16.71Z"/>
        <path class="cls-2" d="M120.47,125.47a5.47,5.47,0,0,0,5.47-5.47h0a5.47,5.47,0,1,0-5.47,5.47Z"/>
        <path class="cls-2"
              d="M360.47,125.06h0a5.06,5.06,0,0,0,5.06-5.06h0a5.06,5.06,0,0,0-5.06-5.06h0a5.06,5.06,0,0,0,0,10.12Z"/>
        <path class="cls-2" d="M90.47,122.53A2.53,2.53,0,0,0,93,120h0a2.53,2.53,0,1,0-2.53,2.53Z"/>
        <path class="cls-2"
              d="M390.47,122.35h0a2.35,2.35,0,0,0,2.35-2.35h0a2.35,2.35,0,0,0-2.35-2.35h0a2.35,2.35,0,0,0,0,4.71Z"/>
        <path class="cls-2" d="M60.47,121a1,1,0,0,0,1-1h0a1,1,0,1,0-1,1Z"/>
        <path class="cls-2" d="M420.47,120.88h0a.88.88,0,0,0,.88-.88h0a.88.88,0,0,0-.88-.88h0a.88.88,0,0,0,0,1.77Z"/>
        <path class="cls-2" d="M30.47,120.47h0a.47.47,0,0,0,.47-.47h0a.47.47,0,0,0-.47-.47h0a.47.47,0,0,0,0,.94Z"/>
        <path class="cls-2" d="M450.47,120.47h0a.47.47,0,0,0,.47-.47h0a.47.47,0,0,0-.47-.47h0a.47.47,0,0,0,0,.94Z"/>
        <path class="cls-2"
              d="M206.59,163.87a14.31,14.31,0,0,0,15-4.72v-18.3A14.38,14.38,0,0,0,197.4,144q4.51-1.8,9.19-3.23Z"/>
        <path class="cls-2"
              d="M270.47,164.35a14.35,14.35,0,0,0,3.81-.52v-23.1q4.69,1.43,9.19,3.23a14.32,14.32,0,0,0-24.2-2.94v18A14.35,14.35,0,0,0,270.47,164.35Z"/>
        <path class="cls-2"
              d="M193.5,145.61a13.76,13.76,0,0,0-13-9.37h0a13.75,13.75,0,0,0-10.12,23.07A114.46,114.46,0,0,1,193.5,145.61Z"/>
        <path class="cls-2"
              d="M300.47,136.41h0a13.59,13.59,0,0,0-12.88,9.29,114.46,114.46,0,0,1,22.84,13.52,13.57,13.57,0,0,0-10-22.81Z"/>
        <circle class="cls-2" cx="150.47" cy="150" r="12"/>
        <path class="cls-2"
              d="M330.47,161.7A11.71,11.71,0,0,0,342.18,150h0a11.71,11.71,0,0,0-11.71-11.71h0a11.71,11.71,0,0,0,0,23.41Z"/>
        <path class="cls-2"
              d="M120.47,158.77h0a8.76,8.76,0,0,0,8.77-8.76h0a8.76,8.76,0,0,0-8.77-8.76h0a8.76,8.76,0,0,0,0,17.53Z"/>
        <rect class="cls-2" x="352.23" y="141.76" width="16.47" height="16.47" rx="8.24" ry="8.24"/>
        <path class="cls-2" d="M90.47,154.71A4.71,4.71,0,0,0,95.18,150h0a4.71,4.71,0,1,0-4.71,4.71Z"/>
        <path class="cls-2"
              d="M390.47,154.29h0a4.29,4.29,0,0,0,4.29-4.29h0a4.29,4.29,0,0,0-4.29-4.29h0a4.29,4.29,0,0,0,0,8.59Z"/>
        <rect class="cls-2" x="58.65" y="148.18" width="3.65" height="3.65" rx="1.82" ry="1.82"/>
        <circle class="cls-2" cx="420.47" cy="150" r="1.53"/>
        <path class="cls-2" d="M30.47,150.59a.59.59,0,0,0,.59-.59h0a.59.59,0,1,0-.59.59Z"/>
        <path class="cls-2" d="M450.47,150.59a.59.59,0,0,0,.59-.59h0a.59.59,0,1,0-.59.59Z"/>
        <path class="cls-2"
              d="M210.47,165.12a14.88,14.88,0,0,0-3.88.52V183a73.51,73.51,0,0,0-8.7,5,14.86,14.86,0,0,0,23.7,1.91V170.14A14.88,14.88,0,0,0,210.47,165.12Z"/>
        <path class="cls-2"
              d="M270.47,194.88A14.88,14.88,0,0,0,283,188a73.47,73.47,0,0,0-8.73-5V165.63a14.89,14.89,0,0,0-3.81-.51h0a14.88,14.88,0,0,0-11.19,5.09v19.58A14.88,14.88,0,0,0,270.47,194.88Z"/>
        <path class="cls-2" d="M142.17,191A109.09,109.09,0,0,1,159,169.22,13.75,13.75,0,1,0,142.17,191Z"/>
        <path class="cls-2"
              d="M330.47,166.47a13.53,13.53,0,0,0-8.42,2.94,109.09,109.09,0,0,1,16.56,21.39,13.52,13.52,0,0,0-8.14-24.32Z"/>
        <rect class="cls-2" x="109.29" y="168.82" width="22.35" height="22.35" rx="11.18" ry="11.18"/>
        <path class="cls-2" d="M360.47,190.71A10.71,10.71,0,0,0,371.18,180h0a10.71,10.71,0,1,0-10.71,10.71Z"/>
        <circle class="cls-2" cx="90.47" cy="180" r="6.82"/>
        <path class="cls-2"
              d="M390.47,186.24a6.24,6.24,0,0,0,6.24-6.23h0a6.24,6.24,0,0,0-6.24-6.23h0a6.24,6.24,0,0,0,0,12.47Z"/>
        <path class="cls-2" d="M60.47,182.82A2.82,2.82,0,0,0,63.29,180h0a2.82,2.82,0,1,0-2.82,2.82Z"/>
        <path class="cls-2"
              d="M420.47,182.41h0a2.41,2.41,0,0,0,2.41-2.41h0a2.41,2.41,0,0,0-2.41-2.41h0a2.41,2.41,0,0,0,0,4.82Z"/>
        <circle class="cls-2" cx="30.47" cy="180" r="0.82"/>
        <path class="cls-2" d="M450.47,180.82a.82.82,0,0,0,.82-.82h0a.82.82,0,0,0-.82-.82h0a.82.82,0,0,0,0,1.65Z"/>
        <path class="cls-2"
              d="M225.47,240a15,15,0,0,0-5.59-11.66h-.58a8.69,8.69,0,0,1-4.75-1.1,3.77,3.77,0,0,1-1.42-2,15,15,0,0,0-2.65-.25,15,15,0,0,0,2.54-.22,4.86,4.86,0,0,1-.08-.86,4.44,4.44,0,0,1,3.4-4.58q2.8-.93,3.23-1.1a2.88,2.88,0,0,0,1-1,7.28,7.28,0,0,0,1-4.33V200a15,15,0,1,0-11.12,25,15,15,0,1,0,15,15Z"/>
        <path class="cls-2" d="M240.47,255a15,15,0,0,0,15-15h0a15,15,0,0,0-5.59-11.66H231A15,15,0,0,0,240.47,255Z"/>
        <path class="cls-2"
              d="M285.47,210a15,15,0,0,0-26.19-10v12.86a7.28,7.28,0,0,0,1,4.33,3.34,3.34,0,0,0,.93,1l3.31,1.1a4.44,4.44,0,0,1,3.4,4.58,4.66,4.66,0,0,1-.08.83,15,15,0,0,0,2.61.24,15,15,0,0,0-2.73.26,3.79,3.79,0,0,1-1.49,2,8.25,8.25,0,0,1-4.67,1.1H261a15,15,0,1,0,9.42-3.34A15,15,0,0,0,285.47,210Z"/>
        <circle class="cls-2" cx="270.47" cy="270" r="15"/>
        <path class="cls-2" d="M240.47,255a15,15,0,1,0,15,15h0A15,15,0,0,0,240.47,255Z"/>
        <circle class="cls-2" cx="210.47" cy="270" r="15"/>
        <path class="cls-2"
              d="M187.21,196.68a67.59,67.59,0,0,0-16,25A14.92,14.92,0,0,0,195.41,210h0A14.94,14.94,0,0,0,187.21,196.68Z"/>
        <path class="cls-2"
              d="M300.47,224.88a14.88,14.88,0,0,0,9.22-3.2,67.58,67.58,0,0,0-16-24.95,14.88,14.88,0,0,0,6.75,28.15Z"/>
        <path class="cls-2"
              d="M120.47,197.53h0a12.47,12.47,0,0,0,0,24.94h0a12.47,12.47,0,0,0,11.22-7.06c.35-1.22.72-2.44,1.11-3.64a12.37,12.37,0,0,0-12.33-14.24Z"/>
        <path class="cls-2"
              d="M360.47,222.06A12.06,12.06,0,0,0,372.53,210h0a12.06,12.06,0,0,0-12.06-12.06h0a12.06,12.06,0,1,0,0,24.12Z"/>
        <circle class="cls-2" cx="90.47" cy="210" r="8.29"/>
        <path class="cls-2"
              d="M390.47,217.65h0a7.65,7.65,0,0,0,7.65-7.65h0a7.65,7.65,0,0,0-7.65-7.65h0a7.65,7.65,0,0,0,0,15.29Z"/>
        <path class="cls-2" d="M60.47,213.65A3.65,3.65,0,0,0,64.12,210h0a3.65,3.65,0,1,0-3.65,3.65Z"/>
        <path class="cls-2"
              d="M420.47,213.12h0a3.12,3.12,0,0,0,3.12-3.12h0a3.12,3.12,0,0,0-3.12-3.12h0a3.12,3.12,0,0,0,0,6.24Z"/>
        <rect class="cls-2" x="29.41" y="208.94" width="2.12" height="2.12" rx="1.06" ry="1.06"/>
        <path class="cls-2" d="M450.47,211a1,1,0,0,0,1-1h0a1,1,0,1,0-1,1Z"/>
        <path class="cls-2"
              d="M180.47,225.06h0A14.94,14.94,0,0,0,168.59,231a64.89,64.89,0,0,0-1.27,12.73q0,1.79.1,3.56a14.93,14.93,0,0,0,28-7.25h0A14.94,14.94,0,0,0,180.47,225.06Z"/>
        <path class="cls-2"
              d="M300.47,254.94a14.94,14.94,0,0,0,13-7.53q.1-1.85.11-3.71a64.92,64.92,0,0,0-1.3-12.89,14.94,14.94,0,1,0-11.77,24.13Z"/>
        <path class="cls-2"
              d="M120.47,227.18a12.82,12.82,0,1,0,7.51,23.2c-.14-2.21-.22-4.43-.22-6.68a104,104,0,0,1,.89-13.57A12.82,12.82,0,0,0,120.47,227.18Z"/>
        <path class="cls-2"
              d="M360.47,227.59h0a12.41,12.41,0,0,0-8.17,3.09,104.06,104.06,0,0,1,.82,13c0,2.06-.07,4.11-.19,6.15a12.41,12.41,0,1,0,7.54-22.25Z"/>
        <path class="cls-2"
              d="M90.47,231.24h0a8.76,8.76,0,0,0,0,17.53h0A8.76,8.76,0,0,0,99.24,240h0A8.76,8.76,0,0,0,90.47,231.24Z"/>
        <path class="cls-2" d="M390.47,231.94h0a8.06,8.06,0,1,0,8.06,8.06h0A8.06,8.06,0,0,0,390.47,231.94Z"/>
        <path class="cls-2" d="M60.47,236a4,4,0,1,0,4,4h0A4,4,0,0,0,60.47,236Z"/>
        <circle class="cls-2" cx="420.47" cy="240" r="3.41"/>
        <circle class="cls-2" cx="30.47" cy="240" r="1.18"/>
        <path class="cls-2" d="M450.47,238.94h0a1.06,1.06,0,1,0,1.06,1.06h0A1.06,1.06,0,0,0,450.47,238.94Z"/>
        <path class="cls-2"
              d="M180.47,255.12a14.88,14.88,0,0,0-11,4.94,66.45,66.45,0,0,0,12.47,24.75,14.87,14.87,0,0,0-1.42-29.68Z"/>
        <path class="cls-2" d="M299,284.81A66.44,66.44,0,0,0,311.46,260,14.87,14.87,0,1,0,299,284.81Z"/>
        <path class="cls-2"
              d="M120.47,257.59a12.41,12.41,0,1,0,11.78,16.29,103,103,0,0,1-3-12.63A12.41,12.41,0,0,0,120.47,257.59Z"/>
        <path class="cls-2" d="M360.47,258h0a12,12,0,0,0-9,4.07,103,103,0,0,1-2.6,11A12,12,0,1,0,360.47,258Z"/>
        <rect class="cls-2" x="82.23" y="261.76" width="16.47" height="16.47" rx="8.24" ry="8.24"/>
        <path class="cls-2" d="M390.47,262.41h0a7.59,7.59,0,1,0,7.59,7.59h0A7.59,7.59,0,0,0,390.47,262.41Z"/>
        <path class="cls-2" d="M60.47,266.35A3.65,3.65,0,1,0,64.12,270h0A3.65,3.65,0,0,0,60.47,266.35Z"/>
        <path class="cls-2"
              d="M420.47,266.88h0a3.12,3.12,0,0,0,0,6.24h0a3.12,3.12,0,0,0,3.12-3.12h0A3.12,3.12,0,0,0,420.47,266.88Z"/>
        <rect class="cls-2" x="29.41" y="268.94" width="2.12" height="2.12" rx="1.06" ry="1.06"/>
        <path class="cls-2" d="M450.47,269a1,1,0,1,0,1,1h0A1,1,0,0,0,450.47,269Z"/>
        <path class="cls-2"
              d="M240.47,285.06h0A14.94,14.94,0,0,0,225.53,300h0A14.94,14.94,0,0,0,231,311.54a80.88,80.88,0,0,0,19,0,14.93,14.93,0,0,0-9.48-26.48Z"/>
        <path class="cls-2"
              d="M210.47,285.12A14.88,14.88,0,0,0,195.75,298a74.4,74.4,0,0,0,25.87,11.88,14.87,14.87,0,0,0-11.14-24.73Z"/>
        <path class="cls-2"
              d="M270.47,285.12h0a14.86,14.86,0,0,0-11.15,24.71,74.36,74.36,0,0,0,25.87-11.92A14.88,14.88,0,0,0,270.47,285.12Z"/>
        <path class="cls-2" d="M182.46,285.51a70.61,70.61,0,0,0,12.4,11.81A14.65,14.65,0,0,0,182.46,285.51Z"/>
        <path class="cls-2" d="M298.35,285.58a14.59,14.59,0,0,0-12.2,11.63A70.59,70.59,0,0,0,298.35,285.58Z"/>
        <path class="cls-2" d="M120.47,288.94h0A11.06,11.06,0,1,0,131.53,300h0A11.06,11.06,0,0,0,120.47,288.94Z"/>
        <path class="cls-2"
              d="M360.47,289.41h0a10.59,10.59,0,0,0,0,21.18h0A10.59,10.59,0,0,0,371.06,300h0A10.59,10.59,0,0,0,360.47,289.41Z"/>
        <path class="cls-2"
              d="M150.47,313.71a13.71,13.71,0,0,0,3.83-.56,108,108,0,0,1-14.74-21.43,13.69,13.69,0,0,0,10.9,22Z"/>
        <polygon class="cls-2" points="341.22 291.91 341.22 291.91 341.22 291.91 341.22 291.91"/>
        <path class="cls-2"
              d="M326.77,312.94A13.43,13.43,0,0,0,343.94,300h0a13.47,13.47,0,0,0-2.72-8.09A108,108,0,0,1,326.77,312.94Z"/>
        <rect class="cls-2" x="83.76" y="293.29" width="13.41" height="13.41" rx="6.71" ry="6.71"/>
        <path class="cls-2"
              d="M390.47,293.88h0a6.12,6.12,0,0,0,0,12.24h0a6.12,6.12,0,0,0,6.12-6.12h0A6.12,6.12,0,0,0,390.47,293.88Z"/>
        <path class="cls-2"
              d="M60.47,297.24h0a2.76,2.76,0,0,0,0,5.53h0A2.76,2.76,0,0,0,63.24,300h0A2.76,2.76,0,0,0,60.47,297.24Z"/>
        <path class="cls-2"
              d="M420.47,297.65h0a2.35,2.35,0,0,0,0,4.71h0a2.35,2.35,0,0,0,2.35-2.35h0A2.35,2.35,0,0,0,420.47,297.65Z"/>
        <circle class="cls-2" cx="30.47" cy="300" r="0.82"/>
        <circle class="cls-2" cx="450.47" cy="300" r="0.76"/>
        <path class="cls-2" d="M150.47,318.12A11.88,11.88,0,1,0,162.35,330h0A11.88,11.88,0,0,0,150.47,318.12Z"/>
        <path class="cls-2" d="M330.47,318.47h0A11.53,11.53,0,1,0,342,330h0A11.53,11.53,0,0,0,330.47,318.47Z"/>
        <rect class="cls-2" x="111.88" y="321.41" width="17.18" height="17.18" rx="8.59" ry="8.59"/>
        <path class="cls-2" d="M360.47,321.94h0a8.06,8.06,0,1,0,8.06,8.06h0A8.06,8.06,0,0,0,360.47,321.94Z"/>
        <path class="cls-2"
              d="M90.47,325.41a4.59,4.59,0,0,0,0,9.18h0A4.59,4.59,0,0,0,95.06,330h0A4.59,4.59,0,0,0,90.47,325.41Z"/>
        <circle class="cls-2" cx="390.47" cy="330" r="4.18"/>
        <path class="cls-2"
              d="M180.47,343.65h0a13.65,13.65,0,0,0,9.24-3.62,114.16,114.16,0,0,1-22.22-14.2,13.63,13.63,0,0,0,13,17.82Z"/>
        <path class="cls-2"
              d="M313.29,325.92a114.16,114.16,0,0,1-21.9,14A13.45,13.45,0,0,0,313.94,330h0a13.47,13.47,0,0,0-.65-4.08Z"/>
        <path class="cls-2" d="M60.47,328.24A1.76,1.76,0,1,0,62.24,330h0A1.76,1.76,0,0,0,60.47,328.24Z"/>
        <rect class="cls-2" x="419" y="328.53" width="2.94" height="2.94" rx="1.47" ry="1.47"/>
        <path class="cls-2" d="M30.47,329.41a.59.59,0,1,0,.59.59h0A.59.59,0,0,0,30.47,329.41Z"/>
        <path class="cls-2" d="M450.47,329.41a.59.59,0,1,0,.59.59h0A.59.59,0,0,0,450.47,329.41Z"/>
        <path class="cls-2"
              d="M215.7,349q-2.47-.54-4.91-1.18l-.32,0h0a12.18,12.18,0,0,0,0,24.35h0A12.18,12.18,0,0,0,222.65,360h0A12.18,12.18,0,0,0,215.7,349Z"/>
        <path class="cls-2" d="M270.47,347.94h0q-.46,0-.92,0c-1.23.32-2.47.62-3.71.9a12,12,0,1,0,4.63-.94Z"/>
        <circle class="cls-2" cx="180.47" cy="360" r="10.88"/>
        <path class="cls-2"
              d="M300.47,349.35h0a10.65,10.65,0,0,0,0,21.29h0A10.65,10.65,0,0,0,311.12,360h0A10.65,10.65,0,0,0,300.47,349.35Z"/>
        <path class="cls-2"
              d="M240.44,351.67q-4.53,0-9-.35a12.52,12.52,0,0,0,9,21.21h0A12.53,12.53,0,0,0,253,360h0a12.53,12.53,0,0,0-3.5-8.68Q245,351.67,240.44,351.67Z"/>
        <path class="cls-2" d="M150.47,351.53a8.47,8.47,0,1,0,8.47,8.47h0A8.47,8.47,0,0,0,150.47,351.53Z"/>
        <path class="cls-2" d="M330.47,351.88a8.12,8.12,0,1,0,8.12,8.12h0A8.12,8.12,0,0,0,330.47,351.88Z"/>
        <circle class="cls-2" cx="120.47" cy="360" r="5.29"/>
        <circle class="cls-2" cx="360.47" cy="360" r="4.88"/>
        <path class="cls-2" d="M90.47,357.53A2.47,2.47,0,1,0,92.94,360h0A2.47,2.47,0,0,0,90.47,357.53Z"/>
        <rect class="cls-2" x="388.23" y="357.77" width="4.47" height="4.47" rx="2.24" ry="2.24"/>
        <path class="cls-2" d="M60.47,359.06a.94.94,0,1,0,.94.94h0A.94.94,0,0,0,60.47,359.06Z"/>
        <circle class="cls-2" cx="420.47" cy="360" r="0.82"/>
        <path class="cls-2" d="M30.47,359.53h0a.47.47,0,0,0,0,.94h0a.47.47,0,0,0,.47-.47h0A.47.47,0,0,0,30.47,359.53Z"/>
        <path class="cls-2"
              d="M450.47,359.53h0a.47.47,0,0,0,0,.94h0a.47.47,0,0,0,.47-.47h0A.47.47,0,0,0,450.47,359.53Z"/>
        <rect class="cls-2" x="232.23" y="381.77" width="16.47" height="16.47" rx="8.24" ry="8.24"/>
        <rect class="cls-2" x="202.65" y="382.18" width="15.65" height="15.65" rx="7.82" ry="7.82"/>
        <path class="cls-2" d="M270.47,382.3a7.71,7.71,0,1,0,7.71,7.71h0A7.71,7.71,0,0,0,270.47,382.3Z"/>
        <path class="cls-2"
              d="M180.47,383.53h0a6.47,6.47,0,0,0,0,12.94h0a6.47,6.47,0,0,0,6.47-6.47h0A6.47,6.47,0,0,0,180.47,383.53Z"/>
        <path class="cls-2" d="M300.47,383.77a6.24,6.24,0,1,0,6.24,6.24h0A6.24,6.24,0,0,0,300.47,383.77Z"/>
        <rect class="cls-2" x="146" y="385.53" width="8.94" height="8.94" rx="4.47" ry="4.47"/>
        <path class="cls-2"
              d="M330.47,385.77h0a4.24,4.24,0,0,0,0,8.47h0a4.24,4.24,0,0,0,4.24-4.23h0A4.24,4.24,0,0,0,330.47,385.77Z"/>
        <path class="cls-2" d="M120.47,387.53a2.47,2.47,0,1,0,2.47,2.47h0A2.47,2.47,0,0,0,120.47,387.53Z"/>
        <rect class="cls-2" x="358.23" y="387.77" width="4.47" height="4.47" rx="2.24" ry="2.24"/>
        <rect class="cls-2" x="89.35" y="388.88" width="2.24" height="2.24" rx="1.12" ry="1.12"/>
        <rect class="cls-2" x="389.41" y="388.94" width="2.12" height="2.12" rx="1.06" ry="1.06"/>
        <path class="cls-2" d="M60.47,389.47h0a.53.53,0,0,0,0,1.06h0A.53.53,0,0,0,61,390h0A.53.53,0,0,0,60.47,389.47Z"/>
        <path class="cls-2"
              d="M420.47,389.47h0a.53.53,0,0,0,0,1.06h0A.53.53,0,0,0,421,390h0A.53.53,0,0,0,420.47,389.47Z"/>
        <path class="cls-2"
              d="M240.47,416.47h0a3.53,3.53,0,0,0,0,7.06h0A3.53,3.53,0,0,0,244,420h0A3.53,3.53,0,0,0,240.47,416.47Z"/>
        <path class="cls-2"
              d="M210.47,416.71a3.29,3.29,0,1,0,0,6.59h0a3.29,3.29,0,0,0,3.29-3.29h0A3.29,3.29,0,0,0,210.47,416.71Z"/>
        <path class="cls-2" d="M270.47,416.77a3.24,3.24,0,1,0,3.24,3.24h0A3.24,3.24,0,0,0,270.47,416.77Z"/>
        <path class="cls-2" d="M180.47,417.47A2.53,2.53,0,1,0,183,420h0A2.53,2.53,0,0,0,180.47,417.47Z"/>
        <path class="cls-2"
              d="M300.47,417.59h0a2.41,2.41,0,0,0,0,4.82h0a2.41,2.41,0,0,0,2.41-2.41h0A2.41,2.41,0,0,0,300.47,417.59Z"/>
        <path class="cls-2"
              d="M150.47,418.41h0a1.59,1.59,0,0,0,0,3.18h0a1.59,1.59,0,0,0,1.59-1.59h0A1.59,1.59,0,0,0,150.47,418.41Z"/>
        <circle class="cls-2" cx="330.47" cy="420" r="1.53"/>
        <path class="cls-2"
              d="M120.47,419.12h0a.88.88,0,0,0,0,1.77h0a.88.88,0,0,0,.88-.88h0A.88.88,0,0,0,120.47,419.12Z"/>
        <path class="cls-2" d="M360.47,419.18h0a.82.82,0,1,0,.82.82h0A.82.82,0,0,0,360.47,419.18Z"/>
        <path class="cls-2" d="M90.47,419.47h0a.53.53,0,0,0,0,1.06h0A.53.53,0,0,0,91,420h0A.53.53,0,0,0,90.47,419.47Z"/>
        <path class="cls-2"
              d="M390.47,419.47h0a.53.53,0,0,0,0,1.06h0A.53.53,0,0,0,391,420h0A.53.53,0,0,0,390.47,419.47Z"/>
        <path class="cls-2"
              d="M240.47,448.88a1.12,1.12,0,0,0-1.12,1.12h0a1.12,1.12,0,0,0,1.12,1.12h0a1.12,1.12,0,0,0,1.12-1.12h0A1.12,1.12,0,0,0,240.47,448.88Z"/>
        <rect class="cls-2" x="209.41" y="448.94" width="2.12" height="2.12" rx="1.06" ry="1.06"/>
        <path class="cls-2" d="M270.47,449a1,1,0,1,0,1,1h0A1,1,0,0,0,270.47,449Z"/>
        <circle class="cls-2" cx="180.47" cy="450" r="0.82"/>
        <circle class="cls-2" cx="300.47" cy="450" r="0.82"/>
        <path class="cls-2" d="M150.47,449.41a.59.59,0,1,0,.59.59h0A.59.59,0,0,0,150.47,449.41Z"/>
        <path class="cls-2" d="M330.47,449.41a.59.59,0,1,0,.59.59h0A.59.59,0,0,0,330.47,449.41Z"/>
        <path class="cls-2"
              d="M120.47,449.53h0a.47.47,0,0,0,0,.94h0a.47.47,0,0,0,.47-.47h0A.47.47,0,0,0,120.47,449.53Z"/>
        <path class="cls-2"
              d="M360.47,449.53h0a.47.47,0,0,0,0,.94h0a.47.47,0,0,0,.47-.47h0A.47.47,0,0,0,360.47,449.53Z"/>
    </g>
</svg>
